<?xml version="1.0" encoding="utf-8"?>
<!-- Generator: Adobe Illustrator 24.0.3, SVG Export Plug-In . SVG Version: 6.00 Build 0)  -->
<svg version="1.1" id="Layer_1" xmlns="http://www.w3.org/2000/svg" xmlns:xlink="http://www.w3.org/1999/xlink" x="0px" y="0px"
	 viewBox="0 0 60 60" style="enable-background:new 0 0 60 60;" xml:space="preserve">
<style type="text/css">
	.st0{fill:none;}
	.st1{fill:#7795AC;}
</style>
<g>
	<g id="Ellipse_2_1_" transform="translate(70 510)">
		<g>
			<circle class="st0" cx="-40" cy="-480" r="30"/>
		</g>
		<g>
			<path class="st1" d="M-40-450c-16.5,0-30-13.5-30-30s13.5-30,30-30c16.5,0,30,13.5,30,30S-23.5-450-40-450z M-40-509
				c-16,0-29,13-29,29c0,16,13,29,29,29s29-13,29-29C-11-496-24-509-40-509z"/>
		</g>
	</g>
	<path id="Icon_awesome-behance_1_" class="st1" d="M28.3,29.7c1-0.4,1.7-1.4,1.6-2.5c0-2.4-1.8-3-3.8-3h-5.7v12h5.8
		c2.2,0,4.2-1,4.2-3.5C30.6,31.3,29.7,30,28.3,29.7z M22.4,26.2h2.7c1,0,1.9,0.3,1.9,1.5c0,1.1-0.7,1.5-1.7,1.5h-2.9V26.2z
		 M25.6,34.2h-3.2v-3c1,0,2,0,3,0c0.2-0.1,0.6-0.1,1,0c0.6,0.2,1.1,0.7,1.1,1.4c0,0.5-0.2,0.9-0.3,1C26.8,34.3,25.7,34.2,25.6,34.2z
		 M38.4,26.2h-5v-1h5V26.2z M39.6,31.8c0-2.4-1.4-4.4-3.9-4.4c-2,0-3.9,1.9-4.1,4c0,0.3-0.2,1.9,0.9,3.2c0.1,0.1,1.1,1.2,2.7,1.4
		c0.2,0,0.3,0,0.5,0c1.8,0.1,3.4-1,3.8-2.7h-2c-0.3,0.7-1,1.1-1.8,1.1c-0.2,0-0.8,0-1.4-0.4c-0.8-0.6-0.9-1.5-0.9-1.6
		c0.2,0,0.4,0,0.6,0l5.5,0C39.6,32.1,39.6,31.9,39.6,31.8z M33.6,31.2c0-1.1,0.9-1.9,1.9-1.9c0,0,0.1,0,0.1,0c1-0.1,1.9,0.7,1.9,1.7
		c0,0.1,0,0.1,0,0.2H33.6z"/>
</g>
</svg>
