<svg xmlns="http://www.w3.org/2000/svg" width="60" height="60" viewBox="0 0 60 60">
  <g id="Group_6" data-name="Group 6" transform="translate(-73 -661)">
    <g id="Ellipse_3" data-name="Ellipse 3" transform="translate(73 661)" fill="none" stroke="#7795ac" stroke-width="1">
      <circle cx="30" cy="30" r="30" stroke="none"/>
      <circle cx="30" cy="30" r="29.5" fill="none"/>
    </g>
    <path id="Icon_feather-github" data-name="Icon feather-github" d="M10.179,19.949C5.051,21.487,5.051,17.385,3,16.872m14.359,6.154V19.057a3.456,3.456,0,0,0-.964-2.677C19.615,16.021,23,14.8,23,9.2a5.579,5.579,0,0,0-1.538-3.845,5.2,5.2,0,0,0-.093-3.867s-1.21-.359-4.01,1.518a13.723,13.723,0,0,0-7.179,0c-2.8-1.877-4.01-1.518-4.01-1.518a5.2,5.2,0,0,0-.092,3.867A5.579,5.579,0,0,0,4.538,9.231c0,5.559,3.385,6.779,6.605,7.179a3.456,3.456,0,0,0-.964,2.646v3.969" transform="translate(90 678.54)" fill="#7795ac"/>
  </g>
</svg>
