<?xml version="1.0" encoding="utf-8"?>
<!-- Generator: Adobe Illustrator 24.0.3, SVG Export Plug-In . SVG Version: 6.00 Build 0)  -->
<svg version="1.1" id="Layer_1" xmlns="http://www.w3.org/2000/svg" xmlns:xlink="http://www.w3.org/1999/xlink" x="0px" y="0px"
	 viewBox="0 0 60 60" style="enable-background:new 0 0 60 60;" xml:space="preserve">
<style type="text/css">
	.st0{fill:none;}
	.st1{fill:#7795AC;}
</style>
<g>
	<g id="Ellipse_3_1_" transform="translate(73 661)">
		<g>
			<circle class="st0" cx="-43" cy="-631" r="30"/>
		</g>
		<g>
			<path class="st1" d="M-43-601c-16.5,0-30-13.5-30-30s13.5-30,30-30s30,13.5,30,30S-26.5-601-43-601z M-43-660c-16,0-29,13-29,29
				c0,16,13,29,29,29c16,0,29-13,29-29C-14-647-27-660-43-660z"/>
		</g>
	</g>
	<path id="Icon_feather-github_1_" class="st1" d="M27.2,37.5c-5.1,1.5-5.1-2.6-7.2-3.1 M34.6,40.6v-4.2c0.1-1-0.3-1.9-0.9-2.6
		c3.1-0.3,6.4-1.5,6.4-7c0-1.4-0.5-2.7-1.5-3.7c0.5-1.2,0.4-2.6-0.1-3.8c0,0-1.2-0.4-3.9,1.5c-2.3-0.6-4.7-0.6-7,0
		c-2.7-1.8-3.9-1.5-3.9-1.5c-0.5,1.2-0.5,2.5-0.1,3.8c-1,1-1.5,2.4-1.5,3.8c0,5.4,3.3,6.6,6.4,7c-0.7,0.7-1,1.6-0.9,2.6v4.2"/>
</g>
</svg>
