<svg xmlns="http://www.w3.org/2000/svg" width="60" height="60" viewBox="0 0 60 60">
  <g id="Group_4" data-name="Group 4" transform="translate(-67 -356)">
    <g id="Ellipse_1" data-name="Ellipse 1" transform="translate(67 356)" fill="none" stroke="#7795ac" stroke-width="1">
      <circle cx="30" cy="30" r="30" stroke="none"/>
      <circle cx="30" cy="30" r="29.5" fill="none"/>
    </g>
    <path id="Icon_awesome-linkedin-in" data-name="Icon awesome-linkedin-in" d="M4.477,20H.33V6.648H4.477ZM2.4,4.826A2.413,2.413,0,1,1,4.8,2.4,2.422,2.422,0,0,1,2.4,4.826ZM20,20H15.858V13.5c0-1.549-.031-3.536-2.156-3.536-2.156,0-2.486,1.683-2.486,3.424V20H7.074V6.648h3.977V8.469h.058a4.357,4.357,0,0,1,3.923-2.156c4.2,0,4.968,2.763,4.968,6.353V20Z" transform="translate(87 375.999)" fill="#7795ac"/>
  </g>
</svg>
