<svg id="contact_illustration" data-name="contact-illustration" xmlns="http://www.w3.org/2000/svg" width="586.812" height="787.488" viewBox="0 0 586.812 787.488">
  <path id="Path_12" data-name="Path 12" d="M5012,171.719s41.672,48.119,137.252,34.026c51.381-7.576,120.772-80.359,203.007-81.922,61.744-1.174,120.589,25.671,164.176,108.844,8.389,16.008,28.126,95.607,35.828,236.823,5.107,93.647,51.3,247.249,46.148,321.411-5.067,72.925-41.283,97.743-51.534,106.177-50.072,41.2-232.479-19.677-280.7-26.724C5145.464,852.713,5012,897.078,5012,897.078Z" transform="translate(-5012 -123.786)" fill="#334b67"/>
  <rect id="Rectangle_30" data-name="Rectangle 30" width="218" height="495" transform="translate(90.5 162.214)" fill="#ebde94"/>
  <path id="Path_4" data-name="Path 4" d="M155.653.157c-15.3,2.2-30.6,4-46.1,3.3-2.9-.1-3.7,1.4-5.4,3.3-4.5,5.1-11.6,8.6-10.3,17.2a14.18,14.18,0,0,1-2.2.6h0c-.6,2.9,1.4,7.3-1.8,8.4-3.6,1.2-6.4-2.5-8.7-5.3a53.25,53.25,0,0,1-3.9-6.5l-.9,3.6c-.2.6-.3,1.2-.5,1.8-.3,8.6-.8,17.3-.9,25.9-.2,16.1-7.2,31-7.6,47.2-.7,29.7-16,57.2-18.5,69.6-1.1,5.8-4.1,11.4-3.5,17.3,0,.3.2,2-.5,2.3a2.434,2.434,0,0,1-2.4-.7c-1.6-1.4-2.1-.5-2.9.6-7.1,10.1-17.7,13.1-29,14.6-4.6.6-9.6,1.1-10.4,6.4a7.737,7.737,0,0,0,.6,4.9c1.8,3.4,5.9,3.8,6.2,3.8,19.4,2.7,30.6,3.6,35.2,3.2,1.3-.1,5.9-.7,9.9,1.9a14.851,14.851,0,0,1,1.5,1.1,15.122,15.122,0,0,0,7.9,0,7.629,7.629,0,0,0,5.3-2.3,5.821,5.821,0,0,0,1.3-3.5,17.254,17.254,0,0,1-.3-3.6v-.2a54.574,54.574,0,0,1,.1-14.6,18.516,18.516,0,0,0-1.7-4.2c-2-1.6-3.9-3.7-1-5.6,4.8-3.1,10.3-5.3,9-12.6,10.2-6.9,10.8-18.8,13.2-28.9a172.742,172.742,0,0,1,8.1-24.6,110.751,110.751,0,0,1,8.2-18.1c4.3-8.7,8.9-17.2,13.4-25.8.5-.9,1.2-1.6,2.2-3,2.5,4.8,2.8,9.6,2.8,14,.2,20.1,7.7,39,8.8,58.9.2,3.6,1.6,7.3-1.4,10.5-.2.2-.5.6-.4.6,3.5,3.2,3.3,6.6.6,10.2,4,2,2.3,3.7-.3,5.4a2.335,2.335,0,0,0-1,1.2c-2.6,12.8-6.6,16.3-22.2,19.8-.5.1-1,.2-1.6.3-3.7.5-5.5,2.6-5.9,6.3-.4,4,.9,6.7,4.8,7.8,3.3.9,6.6,2.3,9.9,2.3,7.3.1,14,2.2,20.6,4.9a5.645,5.645,0,0,0,.9,1.7c2.2,2.7,6.7,2.2,9.2,2,3.2-.3,10-1,11.8-5.4.7-1.7.3-3.3-.4-6.5-1.2-5.5-2.6-11-5.5-15.9-3.1-.1-5.4,1.6-7.7,3.4-2.9,2.2-5.8,1.8-8.7,0-1.6-1-3-2.2-2.4-4.3.5-1.9,2.3-1.9,3.8-1.9l13.2.3h0c4.9-7.9,6.2-17,8.3-25.8,4.7-18.9,3.8-38.1-.2-57-5.3-25.5-5.3-51.1-3.6-76.8.2-2.7.5-5.2,2.1-7.4,5.6-7.6,7.3-16.1,5.7-25.4h0C159.253-.243,157.553-.043,155.653.157Zm-100.3,203.2c-3.3,1.4-6-.3-8.8-1.6-2.1-1-4.5-2.4-3.4-5.2,1.3-3.2,3.5-.4,5.2-.2a62.1,62.1,0,0,1,7.4,2c1.3.4,2.4.9,2.3,2.6C57.853,202.557,56.553,202.857,55.353,203.357Z" transform="matrix(0.998, -0.07, 0.07, 0.998, 277.254, 437.881)" fill="#202a36"/>
  <path id="Path_5" data-name="Path 5" d="M21.62,34.842c2.4,4.1,8,3.2,12.4,3,6.4-.3,11.3.8,12.3,8.6.5,4.7,4.6,5.8,8.8,6.1h0c4.6-.7,7.5-3.6,9.1-7.8,5.9-14.5-1.8-37.1-14.5-42.8-13.3-6-40.8,2.7-47,15.2-2,4.1-5.2,9,.5,13.1C10.22,28.342,16.72,26.442,21.62,34.842Z" transform="matrix(0.998, -0.07, 0.07, 0.998, 345.536, 216.994)" fill="#202a36"/>
  <path id="Path_6" data-name="Path 6" d="M43,17.759c-.9-7.8-5.9-8.9-12.3-8.6-4.4.2-10,1.1-12.4-3-4.9-8.3-11.4-6.4-18.3-4.6,1.4,2.2.2,4.6.3,6.9.4,8.8,4.1,16.5,12.2,19.3,10,3.5,11.3,11,12.7,19.2h0c4.3-10.5,12.4-15.7,23.5-17,1.8-.2,1.5-1.8,1.3-3.1h0c-2.4-2.6,1.7-1.7,1.7-3h0C47.7,23.559,43.6,22.559,43,17.759Z" transform="matrix(0.998, -0.07, 0.07, 0.998, 350.838, 245.276)" fill="#b79292"/>
  <path id="Path_7" data-name="Path 7" d="M17.142.3h0c-4.4-.1-8.8-.3-13.2-.3-1.5,0-3.3-.1-3.8,1.9-.6,2.2.8,3.3,2.4,4.3,2.9,1.8,5.8,2.2,8.7,0,2.3-1.7,4.6-3.5,7.7-3.4C18.342,2,17.742,1.1,17.142.3Z" transform="matrix(0.998, -0.07, 0.07, 0.998, 421.646, 621.514)" fill="#b79292"/>
  <path id="Path_8" data-name="Path 8" d="M97.03,17.6c-1.5-7.6-4.7-11-11.1-13-4.9-1.5-9.6-3.5-15.2-2A9.139,9.139,0,0,1,61.43,0c.1,1.3.4,2.9-1.3,3.1-11.1,1.3-19.1,6.5-23.5,17h0c-.3,3.3-3.1,3.9-5.3,5.2-5.6,3.5-9.9,7.2-11.6,14.6a88.312,88.312,0,0,0-2.5,19.3c.1,1.8-2.8,26.5-8.6,75.8a182.427,182.427,0,0,1-5.1,26.7c-.8,3-1.6,5.5-2,7h0c-2.6,5.8-1.1,11.9-1.1,18,.2-.6.3-1.2.5-1.8l.9-3.6a2.485,2.485,0,0,1,.8-.1c4.4-.5,8.3,1.5,12.2,3.1a6.944,6.944,0,0,0,1.3.5h0a14.178,14.178,0,0,0,2.2-.6c-1.2-8.6,5.8-12.1,10.3-17.2,1.6-1.9,2.5-3.4,5.4-3.3,15.5.6,30.8-1.1,46.1-3.3,1.9-.3,3.6-.4,5.1,1h0a20.3,20.3,0,0,0,.9-5.9,21.091,21.091,0,0,0-1.3-6.4c-1.9-6.4,4.7-8.6,5.4-18.5.3-4.3-.5-9.7-1.5-16.7-.1-.4-.1-.8-.2-1.2-1.7-11.4,5.1-21.2,5.7-32.2C95.43,59.6,101.23,39,97.03,17.6Z" transform="matrix(0.998, -0.07, 0.07, 0.998, 341.435, 272.86)" fill="#ebde94"/>
  <path id="Path_10" data-name="Path 10" d="M14.3,3.678h0c-.4-.2-.9-.3-1.3-.5C9.1,1.578,5.3-.422.8.078h0a1.949,1.949,0,0,0-.8.1,53.25,53.25,0,0,0,3.9,6.5c2.2,2.8,5,6.5,8.7,5.3C15.7,11.078,13.7,6.578,14.3,3.678Z" transform="matrix(0.998, -0.07, 0.07, 0.998, 355.845, 453.313)" fill="#b79292"/>
  <path id="Path_11" data-name="Path 11" d="M12.876,3.35a67.678,67.678,0,0,0-7.4-2c-1.7-.3-4-3-5.2.2-1.1,2.8,1.3,4.2,3.4,5.2,2.8,1.3,5.5,3.1,8.8,1.6,1.2-.5,2.5-.9,2.7-2.4C15.276,4.25,14.176,3.75,12.876,3.35Z" transform="matrix(0.998, -0.07, 0.07, 0.998, 333.691, 629.515)" fill="#b79292"/>
  <rect id="Rectangle_32" data-name="Rectangle 32" width="154" height="26" transform="translate(123.5 314.214)" fill="#fff"/>
  <rect id="Rectangle_33" data-name="Rectangle 33" width="154" height="26" transform="translate(122.5 362.214)" fill="#fff"/>
  <rect id="Rectangle_34" data-name="Rectangle 34" width="154" height="26" transform="translate(122.5 410.214)" fill="#fff"/>
  <rect id="Rectangle_36" data-name="Rectangle 36" width="154" height="101" transform="translate(122.5 459.214)" fill="#7795ac"/>
</svg>
