<?xml version="1.0" encoding="utf-8"?>
<!-- Generator: Adobe Illustrator 24.0.3, SVG Export Plug-In . SVG Version: 6.00 Build 0)  -->
<svg version="1.1" xmlns="http://www.w3.org/2000/svg" xmlns:xlink="http://www.w3.org/1999/xlink" x="0px" y="0px"
	 viewBox="0 0 471 537" style="enable-background:new 0 0 471 537;" xml:space="preserve">
<style type="text/css">
	.st0{display:none;}
	.st1{fill:none;stroke:#3A3E3F;stroke-miterlimit:10;}
	.st2{fill:url(#SVGID_1_);}
	.st3{fill:none;}
	.st4{fill:url(#SVGID_2_);}
	.st5{fill:url(#SVGID_3_);}
	.st6{fill:#B79292;}
	.st7{fill:url(#SVGID_4_);}
	.st8{fill:#FEFEFE;}
	.st9{fill:#202A36;}
	.st10{fill:#8FB6C9;}
	.st11{fill:#F3FCFF;}
	.st12{fill:#C1C1C1;}
</style>
<g id="Layer_1" class="st0">
</g>
<g id="Layer_2">
	<line class="st1" x1="20" y1="521" x2="464" y2="521"/>
	<linearGradient id="SVGID_1_" gradientUnits="userSpaceOnUse" x1="8" y1="281.1211" x2="328" y2="281.1211">
		<stop  offset="0" style="stop-color:#FFFFFF"/>
		<stop  offset="4.573649e-03" style="stop-color:#202A36"/>
		<stop  offset="0.879" style="stop-color:#094468"/>
	</linearGradient>
	<rect x="8" y="40.6" class="st2" width="320" height="481"/>
	<g>
		<path class="st3" d="M359.2,509.4c-0.8,6.4-0.6,11.2-0.1,14.6C359.3,519.2,360.4,514.2,359.2,509.4z"/>
		<path class="st3" d="M386.8,433.5c2.5-6.1,5.2-12.1,8.2-18.1C391.3,422,388.7,428,386.8,433.5z"/>
		<linearGradient id="SVGID_2_" gradientUnits="userSpaceOnUse" x1="350.5844" y1="411.5221" x2="505.9008" y2="454.9787">
			<stop  offset="0" style="stop-color:#215780"/>
			<stop  offset="9.069767e-02" style="stop-color:#114A70"/>
			<stop  offset="0.167" style="stop-color:#094468"/>
			<stop  offset="0.4226" style="stop-color:#123954"/>
			<stop  offset="0.7704" style="stop-color:#1C2E3E"/>
			<stop  offset="0.9954" style="stop-color:#202A36"/>
		</linearGradient>
		<path class="st4" d="M446.9,308.8c-15.3,2.2-30.6,4-46.1,3.3c-2.9-0.1-3.7,1.4-5.4,3.3c-4.5,5.1-11.6,8.6-10.3,17.2
			c0,0.1-1.4,0.4-2.2,0.6c0,0,0,0,0,0c-0.6,2.9,1.4,7.3-1.8,8.4c-3.6,1.2-6.4-2.5-8.7-5.3c-1.6-2-2.6-4.3-3.9-6.5
			c-0.3,1.2-0.6,2.4-0.9,3.6c-0.2,0.6-0.3,1.2-0.5,1.8c-0.3,8.6-0.8,17.3-0.9,25.9c-0.2,16.1-7.2,31-7.6,47.2
			c-0.7,29.7-16,57.2-18.5,69.6c-1.1,5.8-4.1,11.4-3.5,17.3c0,0.3,0.2,2-0.5,2.3c-0.5,0.3-1.7,0-2.4-0.7c-1.6-1.4-2.1-0.5-2.9,0.6
			c-7.1,10.1-17.7,13.1-29,14.6c-4.6,0.6-9.6,1.1-10.4,6.4c-0.1,0.7-0.5,2.8,0.6,4.9c1.8,3.4,5.9,3.8,6.2,3.8
			c17.8,1.6,35.2,3.2,35.2,3.2c0.8,0,2.9-0.2,5.5,0.5c2.6,0.6,4.6,1.7,5.9,2.6c2.6,0.8,5.3,0.6,7.9,0c1.6-0.1,3.8-0.6,5.3-2.3
			c0.9-1,1.2-2.3,1.3-3.5c-0.2-0.9-0.3-2.1-0.3-3.6c0-0.1,0-0.1,0-0.2c-0.5-3.5-0.7-8.3,0.1-14.6c-0.4-1.4-0.9-2.8-1.7-4.2
			c-2-1.6-3.9-3.7-1-5.6c4.8-3.1,10.3-5.3,9-12.6c10.2-6.9,10.8-18.8,13.2-28.9c2-8.5,4.9-16.6,8.1-24.6c1.9-5.5,4.5-11.5,8.2-18.1
			c4.3-8.7,8.9-17.2,13.4-25.8c0.5-0.9,1.2-1.6,2.2-3c2.5,4.8,2.8,9.6,2.8,14c0,0,7.5,37.5,8.8,58.9c0.2,3.8,0.3,5.6-0.1,7.5
			c-0.6,2.3-1.6,3.8-1,6c0.2,1,0.8,1.5,1,3c0.2,1.2,0.1,2.3,0,3c0.4,1.4,0.2,2.4,0,3c-0.5,1.3-1.4,1.6-2,3c-0.5,1.1-0.4,2-0.3,2.5
			c0.1,2.4-1.6,8.4-5.2,12.4c-3.2,3.5-8.3,5.5-17,7.4c-0.5,0.1-1,0.2-1.6,0.3c-3.7,0.5-5.5,2.6-5.9,6.3c-0.4,4,0.9,6.7,4.8,7.8
			c6.3,1.7,9.9,2.3,9.9,2.3c2.4,0.1,12.9,0.8,22.2,5c4.4,2,5.2,3.2,8.4,3.5c4.5,0.4,10.1-1.5,11.8-5.4c0.7-1.7,0.3-3.3-0.4-6.5
			c-1.2-5.5-2.6-11-5.5-15.9c-3.1-0.1-5.4,1.6-7.7,3.4c-2.9,2.2-5.8,1.8-8.7,0c-1.6-1-3-2.2-2.4-4.3c0.5-1.9,2.3-1.9,3.8-1.9
			c4.4,0.1,8.8,0.2,13.2,0.3c0,0,0,0,0,0c4.9-7.9,6.2-17,8.3-25.8c4.7-18.9,3.8-38.1-0.2-57c-5.3-25.5-5.3-51.1-3.6-76.8
			c0.2-2.7,0.5-5.2,2.1-7.4c5.6-7.6,7.3-16.1,5.7-25.4c0,0,0,0,0,0C450.5,308.4,448.8,308.6,446.9,308.8z M346.6,512
			c-3.3,1.4-6-0.3-8.8-1.6c-2.1-1-4.5-2.4-3.4-5.2c1.3-3.2,3.5-0.4,5.2-0.2c2.5,0.4,5,1.3,7.4,2c1.3,0.4,2.4,0.9,2.3,2.6
			C349.1,511.2,347.8,511.5,346.6,512z"/>
		<linearGradient id="SVGID_3_" gradientUnits="userSpaceOnUse" x1="378.0484" y1="144" x2="433" y2="144">
			<stop  offset="0" style="stop-color:#BFBDE2"/>
			<stop  offset="4.653470e-02" style="stop-color:#BDB2CD"/>
			<stop  offset="0.1116" style="stop-color:#BBA6B7"/>
			<stop  offset="0.1884" style="stop-color:#B99DA6"/>
			<stop  offset="0.2834" style="stop-color:#B8979B"/>
			<stop  offset="0.4167" style="stop-color:#B79394"/>
			<stop  offset="0.7868" style="stop-color:#B79292"/>
		</linearGradient>
		<path class="st5" d="M423.7,136.2c-1-10.7-6.2-12.2-13-11.7c-4.7,0.3-10.6,1.5-13.2-4.1c-5.2-11.3-12.1-8.8-19.4-6.2
			c-0.1,2.2-0.1,5.4,0.3,9.3c0.4,4.2,2.5,24.2,12.3,29.7c3.8,2.1,5.3,0.2,8.3,2.6c4.8,3.9,5.8,13,5.9,20.1c0,0,0,0,0,0
			c4.6-14.3,13.2-21.4,24.9-23.1c1.9-0.3,1.6-2.5,1.4-4.2v0c0.6-1.4,1.2-2.8,1.8-4.1v0C428.6,144.1,424.3,142.6,423.7,136.2z"/>
		<path class="st6" d="M439.6,502.2C439.6,502.2,439.6,502.2,439.6,502.2c-4.4-0.1-8.8-0.3-13.2-0.3c-1.5,0-3.3-0.1-3.8,1.9
			c-0.6,2.2,0.8,3.3,2.4,4.3c2.9,1.8,5.8,2.2,8.7,0c2.3-1.7,4.6-3.5,7.7-3.4C440.8,503.9,440.2,503,439.6,502.2z"/>
		<linearGradient id="SVGID_4_" gradientUnits="userSpaceOnUse" x1="366.7438" y1="242.8519" x2="465.3016" y2="242.8519">
			<stop  offset="0" style="stop-color:#CDEEFC"/>
			<stop  offset="8.728615e-02" style="stop-color:#D7EEF8"/>
			<stop  offset="0.2537" style="stop-color:#E4EEF3"/>
			<stop  offset="0.4769" style="stop-color:#EBEEF0"/>
			<stop  offset="0.9916" style="stop-color:#EDEEEF"/>
		</linearGradient>
		<path class="st7" d="M463.8,166.1c-1.5-7.6-4.7-11-11.1-13c-6.3-2-6.6-0.1-15.2-2c-2.2-0.5-5.7-1.4-9.6,0.1
			c-0.5,0.2-0.8,0.4-1,0.5c-11.1,1.3-19.1,6.5-23.5,17c0,0,0,0,0,0c-0.3,3.3-3.1,3.9-5.3,5.2c-5.6,3.5-9.9,7.2-11.6,14.6
			c-2.6,11-2.5,19.3-2.5,19.3c0.1,1.8-2.8,26.5-8.6,75.8c-0.5,4.2-1.7,14.1-5.1,26.7c-0.8,3-1.6,5.5-2,7v0l0,0
			c-2.6,5.8-1.1,11.9-1.1,18c0.2-0.6,0.3-1.2,0.5-1.8c0.3-1.2,0.6-2.4,0.9-3.6c0.3-0.1,0.6-0.1,0.8-0.1c4.4-0.5,8.3,1.5,12.2,3.1
			c0.4,0.2,0.9,0.4,1.3,0.5v0c0,0,0,0,0,0c0.8-0.2,2.2-0.5,2.2-0.6c-1.2-8.6,5.8-12.1,10.3-17.2c1.6-1.9,2.5-3.4,5.4-3.3
			c15.5,0.6,30.8-1.1,46.1-3.3c1.9-0.3,3.6-0.4,5.1,1l0,0c0.4-1.3,0.9-3.4,0.9-5.9c-0.1-3.1-0.9-5.1-1.3-6.4
			c-1.9-6.4,4.7-8.6,5.4-18.5c0.3-4.3-0.5-9.7-1.5-16.7c-0.1-0.4-0.1-0.8-0.2-1.2c-1.7-11.4,5.1-21.2,5.7-32.2
			C462.2,208.1,468,187.5,463.8,166.1z"/>
		<path class="st8" d="M359.1,524.1C359.1,524.1,359.1,524.1,359.1,524.1c0,0,0,0.1,0,0.1c-0.1,1.5,0,2.6,0.3,3.6
			C359.4,526.5,359.2,525.1,359.1,524.1z"/>
		<path class="st6" d="M382.9,333.2L382.9,333.2c-0.4-0.2-0.9-0.3-1.3-0.5c-3.9-1.6-7.7-3.6-12.2-3.1c0.3,0,0.1,0,0,0
			c-0.3,0-0.6,0-0.8,0.1c1.3,2.2,2.3,4.5,3.9,6.5c2.2,2.8,5,6.5,8.7,5.3C384.3,340.6,382.3,336.1,382.9,333.2z"/>
		<path class="st6" d="M347.1,507.1c-2.5-0.7-4.9-1.6-7.4-2c-1.7-0.3-4-3-5.2,0.2c-1.1,2.8,1.3,4.2,3.4,5.2c2.8,1.3,5.5,3.1,8.8,1.6
			c1.2-0.5,2.5-0.9,2.7-2.4C349.5,508,348.4,507.5,347.1,507.1z"/>
		<path class="st9" d="M394.8,124.1c2.7,4.6,9.2,3.7,14.2,3.4c7.3-0.4,13,0.9,14,9.9c0.6,5.4,5.3,6.6,10.1,7v0
			c5.3-0.8,8.5-4.2,10.5-8.9c6.8-16.6-2-42.5-16.6-49.1c-15.2-6.8-46.7,3.1-53.8,17.4c-2.3,4.7-6,10.3,0.6,15
			C381.7,116.7,389.1,114.6,394.8,124.1z"/>
	</g>
	<rect x="45.4" y="316" class="st10" width="245.6" height="135"/>
	<rect x="44.9" y="259" class="st11" width="246.1" height="21"/>
	<rect x="44.9" y="219" class="st11" width="246.1" height="21"/>
	<rect x="44.9" y="178" class="st11" width="246.1" height="21"/>
	<rect x="83" y="80" class="st10" width="208" height="5"/>
	<circle class="st10" cx="55" cy="82" r="10"/>
	<g>
		<path class="st12" d="M399.1,312.4c-0.1,0-0.3-0.1-0.4-0.2c-0.2-0.2-0.1-0.5,0.1-0.7c1.2-1,2.3-2.1,3.4-3.3
			c6.2-7.1,7.3-15.4,7.8-19.4l0-0.4c1.2-9.3,4.1-23.3,10-48.1c0.9-4.2,1.3-8.6,1-12.9c-0.4-6.2-2.1-12.2-4.9-17.8
			c-0.1-0.2,0-0.5,0.2-0.7c0.2-0.1,0.5,0,0.7,0.2c2.9,5.7,4.6,11.9,5.1,18.2c0.3,4.4,0,8.8-1,13.1c-5.9,24.8-8.8,38.6-10,48l0,0.4
			c-0.5,4.1-1.6,12.6-8,20c-1.1,1.2-2.2,2.3-3.5,3.4C399.3,312.3,399.2,312.4,399.1,312.4z"/>
	</g>
	<g>
		<path class="st12" d="M461.3,201.5c-2.4,0-5.1-2.5-5.2-2.6l-0.1-0.1c-0.1-0.2-11.1-16.9-28.8-23.8c-17.5-6.8-27.5-1.1-27.6-1
			l-0.5-0.9c0.4-0.3,10.4-6,28.4,1c17.5,6.8,28.5,23.1,29.2,24.1c0.9,0.9,3.5,2.8,5.2,2.2c1.1-0.4,1.8-1.9,2-4.4l1,0.1
			c-0.3,2.9-1.2,4.7-2.7,5.2C462.1,201.4,461.7,201.5,461.3,201.5z"/>
	</g>
</g>
</svg>
